<svg xmlns="http://www.w3.org/2000/svg" xmlns:xlink="http://www.w3.org/1999/xlink" width="500" zoomAndPan="magnify" viewBox="0 0 375 374.999991" height="500" preserveAspectRatio="xMidYMid meet" version="1.0"><defs><clipPath id="df374d4a22"><path d="M 156 60 L 223 60 L 223 103 L 156 103 Z M 156 60 " clip-rule="nonzero"/></clipPath><clipPath id="d803023a9e"><path d="M 159.945312 137.363281 L 138.445312 47.800781 L 215.949219 29.195312 L 237.453125 118.757812 Z M 159.945312 137.363281 " clip-rule="nonzero"/></clipPath><clipPath id="e1d951765b"><path d="M 204.890625 337.175781 L 135.425781 47.816406 L 555.6875 -53.074219 L 625.152344 236.289062 Z M 204.890625 337.175781 " clip-rule="nonzero"/></clipPath><clipPath id="9a22fc2718"><path d="M 118 106 L 237 106 L 237 184 L 118 184 Z M 118 106 " clip-rule="nonzero"/></clipPath><clipPath id="fc3010da89"><path d="M 100.214844 110.15625 L 241.898438 70.917969 L 274.519531 188.707031 L 132.832031 227.945312 Z M 100.214844 110.15625 " clip-rule="nonzero"/></clipPath><clipPath id="ca54ddca1d"><path d="M -185.011719 41.5 L 204.195312 -66.289062 L 360.679688 498.75 L -28.53125 606.535156 Z M -185.011719 41.5 " clip-rule="nonzero"/></clipPath><clipPath id="9e7a32764f"><path d="M 92 189 L 285 189 L 285 308 L 92 308 Z M 92 189 " clip-rule="nonzero"/></clipPath><clipPath id="605f93a0c5"><path d="M 229.433594 83.058594 L 348.8125 282.035156 L 145.277344 404.148438 L 25.898438 205.171875 Z M 229.433594 83.058594 " clip-rule="nonzero"/></clipPath><clipPath id="e5cc2bd6ee"><path d="M 780.535156 -600.304688 L 1218.871094 130.292969 L 158.671875 766.378906 L -279.664062 35.78125 Z M 780.535156 -600.304688 " clip-rule="nonzero"/></clipPath></defs><rect x="-37.5" width="450" fill="#ffffff" y="-37.499999" height="449.999989" fill-opacity="1"/><rect x="-37.5" width="450" fill="#ffffff" y="-37.499999" height="449.999989" fill-opacity="1"/><g clip-path="url(#df374d4a22)"><g clip-path="url(#d803023a9e)"><g clip-path="url(#e1d951765b)"><path fill="#bb9d8c" d="M 193.390625 60.398438 C 227.828125 57.0625 234.578125 94.210938 200.664062 100.460938 C 195.324219 101.441406 190.085938 102.117188 185.054688 102.390625 C 184.511719 102.421875 183.960938 102.445312 183.417969 102.472656 C 149.234375 103.917969 146.1875 66.785156 180.078125 61.992188 C 184.394531 61.375 188.839844 60.839844 193.390625 60.398438 " fill-opacity="1" fill-rule="nonzero"/></g></g></g><g clip-path="url(#9a22fc2718)"><g clip-path="url(#fc3010da89)"><g clip-path="url(#ca54ddca1d)"><path fill="#c68c6d" d="M 160.730469 179.003906 C 100.253906 167.824219 106.921875 101.03125 167.941406 106.988281 C 177.546875 107.925781 186.835938 109.332031 195.566406 111.332031 C 196.507812 111.546875 197.453125 111.773438 198.398438 111.996094 C 257.523438 126.289062 244.519531 191.238281 184.257812 182.8125 C 176.585938 181.746094 168.730469 180.476562 160.730469 179.003906 " fill-opacity="1" fill-rule="nonzero"/></g></g></g><g clip-path="url(#9e7a32764f)"><g clip-path="url(#605f93a0c5)"><g clip-path="url(#e5cc2bd6ee)"><path fill="#d6ab93" d="M 207.851562 190.792969 C 306.839844 195.601562 310.585938 303.6875 211.855469 307.351562 C 196.320312 307.925781 181.191406 307.664062 166.820312 306.367188 C 165.257812 306.226562 163.699219 306.066406 162.152344 305.917969 C 64.648438 295.835938 71.421875 189.324219 169.457031 189.785156 C 181.945312 189.84375 194.761719 190.152344 207.851562 190.792969 " fill-opacity="1" fill-rule="nonzero"/></g></g></g></svg>